<?xml version="1.0" standalone="no"?>
<!DOCTYPE svg PUBLIC "-//W3C//DTD SVG 20010904//EN"
 "http://www.w3.org/TR/2001/REC-SVG-20010904/DTD/svg10.dtd">
<svg version="1.0" xmlns="http://www.w3.org/2000/svg"
 width="416.000000pt" height="121.000000pt" viewBox="0 0 416.000000 121.000000"
 preserveAspectRatio="xMidYMid meet">

<g transform="translate(0.000000,121.000000) scale(0.100000,-0.100000)"
fill="#fff" stroke="none">
<path d="M180 1021 c-21 -40 -13 -49 48 -56 97 -11 174 -33 262 -77 116 -56
248 -187 303 -299 41 -83 77 -211 77 -271 0 -33 3 -38 23 -38 42 0 47 16 47
162 0 130 -2 142 -26 191 -75 149 -210 287 -354 360 l-91 47 -139 0 c-127 0
-140 -2 -150 -19z"/>
<path d="M745 1017 c52 -38 117 -100 157 -150 l38 -49 0 99 c0 64 -4 103 -12
111 -8 8 -47 12 -113 12 l-100 -1 30 -22z"/>
<path d="M2290 1026 c-123 -26 -228 -112 -271 -224 -30 -76 -32 -205 -5 -277
61 -161 200 -250 380 -243 l79 2 52 -56 c28 -30 61 -61 73 -67 11 -6 62 -11
112 -11 l92 0 -93 100 -92 101 41 42 c22 23 54 69 69 102 25 53 28 71 28 160
0 107 -8 138 -58 218 -76 122 -247 186 -407 153z m195 -159 c79 -44 118 -147
98 -264 -20 -113 -81 -174 -184 -181 -75 -6 -137 17 -178 63 -37 43 -51 91
-51 181 0 119 56 200 154 225 45 11 115 1 161 -24z"/>
<path d="M1110 660 l0 -370 75 0 75 0 2 241 3 240 99 -191 c55 -105 106 -196
114 -202 20 -17 89 -16 106 2 8 8 59 101 113 205 l98 190 3 -243 2 -242 75 0
75 0 0 370 0 370 -85 0 c-101 0 -76 30 -225 -268 -58 -116 -107 -210 -110
-211 -3 0 -52 94 -110 210 -150 300 -124 269 -225 269 l-85 0 0 -370z"/>
<path d="M2740 960 l0 -70 105 0 106 0 -3 -300 -3 -300 83 0 82 0 0 300 0 299
103 3 102 3 0 65 0 65 -287 3 -288 2 0 -70z"/>
<path d="M3400 960 l0 -70 100 0 100 0 0 -300 0 -300 85 0 85 0 0 300 0 299
103 3 102 3 3 68 3 67 -291 0 -290 0 0 -70z"/>
<path d="M170 790 c0 -59 0 -59 33 -64 17 -3 49 -8 69 -11 68 -11 173 -72 231
-135 65 -70 101 -141 118 -233 l12 -67 62 0 61 0 -7 63 c-29 241 -214 442
-454 492 -38 8 -82 15 -97 15 -27 0 -28 -1 -28 -60z"/>
<path d="M177 603 c-11 -11 -8 -282 3 -304 10 -18 23 -19 170 -19 159 0 160 0
160 23 0 75 -64 188 -134 236 -64 44 -182 82 -199 64z"/>
</g>
</svg>
